<svg width="39" height="29" viewBox="0 0 39 29" fill="none" xmlns="http://www.w3.org/2000/svg">
<path d="M36.5104 26H2.26277C1.40346 26 0.706055 26.672 0.706055 27.5C0.706055 28.328 1.40346 29 2.26277 29H36.5104C37.3697 29 38.0671 28.328 38.0671 27.5C38.0671 26.672 37.3697 26 36.5104 26Z" fill="black"/>
<path d="M36.5526 0H15.3476C14.5116 0 13.833 0.672 13.833 1.5C13.833 2.328 14.5116 3 15.3476 3H36.5526C37.3887 3 38.0673 2.328 38.0673 1.5C38.0673 0.672 37.3887 0 36.5526 0Z" fill="black"/>
<path d="M36.5104 9H2.26277C1.40346 9 0.706055 9.672 0.706055 10.5C0.706055 11.328 1.40346 12 2.26277 12H36.5104C37.3697 12 38.0671 11.328 38.0671 10.5C38.0671 9.672 37.3697 9 36.5104 9Z" fill="black"/>
<path d="M36.5526 18H15.3476C14.5116 18 13.833 18.672 13.833 19.5C13.833 20.328 14.5116 21 15.3476 21H36.5526C37.3887 21 38.0673 20.328 38.0673 19.5C38.0673 18.672 37.3887 18 36.5526 18Z" fill="black"/>
</svg>
